<?xml version="1.0" encoding="utf-8"?>
<!-- Svg Vector Icons : http://www.onlinewebfonts.com/icon -->
<!DOCTYPE svg PUBLIC "-//W3C//DTD SVG 1.1//EN" "http://www.w3.org/Graphics/SVG/1.1/DTD/svg11.dtd">
<svg version="1.1" xmlns="http://www.w3.org/2000/svg" xmlns:xlink="http://www.w3.org/1999/xlink" x="0px" y="0px" viewBox="0 0 1000 1000" enable-background="new 0 0 1000 1000" xml:space="preserve">
<metadata> Svg Vector Icons : http://www.onlinewebfonts.com/icon </metadata>
<g><path d="M378.2,972.5C175.3,920.6,16.1,729,10.6,518.4C0.3,320.7,124.2,127,305.3,48.9C385.5,7.5,479.1,9.6,566.8,15.4c126.3,9.7,238.6,84.5,315.7,182c100.8,119.9,134.3,291,84.9,439.9C915.9,822.4,744.1,961.6,554.7,984C495.8,991.4,435.5,987.9,378.2,972.5L378.2,972.5z M588.2,933.7c159.4-35,296.7-159,340.4-317.3c41.3-139,5.7-295.6-85-407.6c-41.5-22.6-92.9-2-137.9-0.3c-76,13.7-161.1,33.3-210.9,97.3c-15.1,48-41.8,90.8-65.9,133.9c35.1,35.1,58.1-43.8,73.3-69.2c18-35.6,18.3-116.8,72-101c2,57.5-7.3,117.5-31.7,169.8C523.2,473.5,480.6,543,436,504c-42.1-52.8-22.9-128.9,5.8-183.6c56-91.4,140.5-159.6,214.2-236.1c9.3-14.2-40.7-16.6-52-23.6c-48.7-10.8-98.6-14.1-148.1-19.5C402,140,364.8,249,355.2,361.5c-0.8,70.8,19.2,152,81.6,192.7c46.9,20.3,99.9-2,125.3-44.7c48.3-60.8,44.5-142,47.7-215.1c-4.4-46.6,31-23.4,29.3,7.9c11.2,89.3,17.2,190.8-39,267.3c-62.3,77.9-183.9,70-260.1,17.6c-106.1-75.4-150.5-204.4-189.7-323c-6.3-8.6-8.7-50.5-18.5-28.4C48.7,357.4,34.7,519.1,81.2,657.3c6.1,14.8,3.8,38.6,25.9,35.8c146.8,32,307.4,52.6,448.5-11.7C635.7,645.3,699.1,565,696,474.4c3.1-71.8-26.9-137.9-53.9-202.5c50.7,45.8,98.2,98.6,116.8,166.1c38.9,118.7,3.7,254.9-83.4,343.6c-59.5,68.8-140.4,112-220.4,152.2c-25.5,22.8,54.1,9.2,74.7,8.8C549.5,940.4,569,937.7,588.2,933.7L588.2,933.7z"/></g>
</svg>