<?xml version="1.0" encoding="UTF-8" standalone="no"?>
<!-- Svg Vector Icons : http://www.onlinewebfonts.com/icon -->

<svg
   xmlns:dc="http://purl.org/dc/elements/1.1/"
   xmlns:cc="http://creativecommons.org/ns#"
   xmlns:rdf="http://www.w3.org/1999/02/22-rdf-syntax-ns#"
   xmlns:svg="http://www.w3.org/2000/svg"
   xmlns="http://www.w3.org/2000/svg"
   xmlns:sodipodi="http://sodipodi.sourceforge.net/DTD/sodipodi-0.dtd"
   xmlns:inkscape="http://www.inkscape.org/namespaces/inkscape"
   version="1.1"
   x="0px"
   y="0px"
   viewBox="0 0 1000 1000"
   enable-background="new 0 0 1000 1000"
   xml:space="preserve"
   id="svg8"
   sodipodi:docname="linux-light.svg"
   inkscape:version="0.92.4 (5da689c313, 2019-01-14)"><defs
   id="defs12" /><sodipodi:namedview
   pagecolor="#ffffff"
   bordercolor="#666666"
   borderopacity="1"
   objecttolerance="10"
   gridtolerance="10"
   guidetolerance="10"
   inkscape:pageopacity="0"
   inkscape:pageshadow="2"
   inkscape:window-width="1880"
   inkscape:window-height="1056"
   id="namedview10"
   showgrid="false"
   inkscape:zoom="0.236"
   inkscape:cx="500"
   inkscape:cy="500"
   inkscape:window-x="40"
   inkscape:window-y="24"
   inkscape:window-maximized="1"
   inkscape:current-layer="svg8" />
<metadata
   id="metadata2"> Svg Vector Icons : http://www.onlinewebfonts.com/icon <rdf:RDF><cc:Work
     rdf:about=""><dc:format>image/svg+xml</dc:format><dc:type
       rdf:resource="http://purl.org/dc/dcmitype/StillImage" /></cc:Work></rdf:RDF></metadata>
<g
   id="g6"><path
     d="M378.2,972.5C175.3,920.6,16.1,729,10.6,518.4C0.3,320.7,124.2,127,305.3,48.9C385.5,7.5,479.1,9.6,566.8,15.4c126.3,9.7,238.6,84.5,315.7,182c100.8,119.9,134.3,291,84.9,439.9C915.9,822.4,744.1,961.6,554.7,984C495.8,991.4,435.5,987.9,378.2,972.5L378.2,972.5z M588.2,933.7c159.4-35,296.7-159,340.4-317.3c41.3-139,5.7-295.6-85-407.6c-41.5-22.6-92.9-2-137.9-0.3c-76,13.7-161.1,33.3-210.9,97.3c-15.1,48-41.8,90.8-65.9,133.9c35.1,35.1,58.1-43.8,73.3-69.2c18-35.6,18.3-116.8,72-101c2,57.5-7.3,117.5-31.7,169.8C523.2,473.5,480.6,543,436,504c-42.1-52.8-22.9-128.9,5.8-183.6c56-91.4,140.5-159.6,214.2-236.1c9.3-14.2-40.7-16.6-52-23.6c-48.7-10.8-98.6-14.1-148.1-19.5C402,140,364.8,249,355.2,361.5c-0.8,70.8,19.2,152,81.6,192.7c46.9,20.3,99.9-2,125.3-44.7c48.3-60.8,44.5-142,47.7-215.1c-4.4-46.6,31-23.4,29.3,7.9c11.2,89.3,17.2,190.8-39,267.3c-62.3,77.9-183.9,70-260.1,17.6c-106.1-75.4-150.5-204.4-189.7-323c-6.3-8.6-8.7-50.5-18.5-28.4C48.7,357.4,34.7,519.1,81.2,657.3c6.1,14.8,3.8,38.6,25.9,35.8c146.8,32,307.4,52.6,448.5-11.7C635.7,645.3,699.1,565,696,474.4c3.1-71.8-26.9-137.9-53.9-202.5c50.7,45.8,98.2,98.6,116.8,166.1c38.9,118.7,3.7,254.9-83.4,343.6c-59.5,68.8-140.4,112-220.4,152.2c-25.5,22.8,54.1,9.2,74.7,8.8C549.5,940.4,569,937.7,588.2,933.7L588.2,933.7z"
     id="path4" /></g>
<path
   style="fill:#ffffff;stroke-width:4.237288"
   d="M 426.69492,980.30343 C 239.17675,950.99174 78.954919,806.94564 28.193313,622.0339 14.546749,572.32292 9.5886301,481.50513 17.549065,427.06339 40.939773,267.09339 156.85802,116.524 307.47476,50.470949 370.13378,22.991806 387.71027,19.56018 477.54237,17.267028 571.35165,14.872351 614.90369,20.557578 674.64182,42.996131 777.9378,81.795657 887.71661,184.08097 939.1047,289.40678 991.57644,396.95369 1001.6042,511.4664 968.5411,625.56004 943.47386,712.06182 904.90157,778.19072 844.69746,837.87924 731.14597,950.45818 575.35318,1003.5408 426.69492,980.30343 Z m 150.99593,-42.95216 c 95.30724,-18.07949 178.81258,-65.23682 250.41898,-141.41724 52.55949,-55.91683 84.6853,-114.02577 105.8597,-191.47827 8.32305,-30.44445 9.66649,-45.45072 9.61678,-107.42186 -0.0479,-59.9864 -1.60699,-78.14079 -9.32089,-108.54793 -19.29284,-76.04952 -73.38394,-176.49312 -100.05178,-185.78959 -41.71334,-14.54135 -196.64089,10.33339 -263.70381,42.33956 -14.68326,7.00768 -36.98258,21.11992 -49.55398,31.36054 -19.06216,15.5279 -25.15949,24.13364 -36.72403,51.83175 -7.62678,18.26685 -23.34483,50.09241 -34.92907,70.72347 -11.58423,20.63106 -20.03974,40.17555 -18.79004,43.4322 4.34411,11.32055 26.38979,6.89419 38.73496,-7.77722 14.76089,-17.54231 36.52466,-65.32837 50.25525,-110.34384 11.8553,-38.86745 23.7567,-53.92386 42.62441,-53.92386 h 12.00487 l -2.78428,39.60977 c -5.45728,77.63628 -28.52877,138.04354 -68.62165,179.66989 -17.96733,18.65454 -23.86046,22.24577 -36.50483,22.24577 -57.59507,0 -69.69677,-107.00099 -21.56547,-190.67797 21.52632,-37.42386 50.42149,-71.06841 131.68467,-153.32917 50.54432,-51.16484 81.54046,-85.659914 80.17305,-89.223308 -4.26361,-11.110793 -89.59195,-29.556724 -162.64793,-35.16056 -45.6511,-3.501717 -41.04733,-7.379592 -70.71344,59.563498 -37.17229,83.8811 -63.10343,178.42151 -68.63799,250.24214 -5.10305,66.22095 16.36655,137.23329 53.80991,177.98041 21.65695,23.5678 38.23157,31.46754 65.90407,31.41102 43.64156,-0.089 80.96724,-29.3331 109.02644,-85.42017 16.9625,-33.90602 23.53792,-69.40743 27.17966,-146.74542 2.80805,-59.63376 6.71864,-70.07999 19.05288,-50.89508 8.76606,13.63484 17.14822,103.01619 13.92254,148.45975 -3.21839,45.34109 -8.78712,69.27185 -24.09411,103.54092 C 579.2711,621.26169 473.07419,651.06089 371.61017,601.11733 285.60818,558.78466 225.98354,473.78017 168.55769,311.63342 c -13.00334,-36.71603 -23.64244,-69.49544 -23.64244,-72.84315 0,-10.0198 -8.62029,-12.22257 -15.0009,-3.83323 -25.00046,32.87103 -55.396003,107.70777 -68.072901,167.60199 -8.835534,41.745 -9.989835,135.26461 -2.185949,177.10199 6.402483,34.32432 25.664682,102.16161 30.859835,108.68169 4.179284,5.24509 71.601375,18.86721 143.382975,28.96937 24.47033,3.44381 72.36675,6.29639 106.43648,6.33911 156.95284,0.19661 268.06267,-45.36801 323.06233,-132.48369 42.38508,-67.13504 45.75648,-140.73551 10.99191,-239.96039 -9.45928,-26.99866 -18.17971,-52.90203 -19.37873,-57.56304 -3.30776,-12.85841 53.50525,48.84817 69.79737,75.80935 63.64394,105.32175 62.63258,235.79747 -2.69165,347.25633 -8.11776,13.8508 -28.1164,40.34106 -44.44144,58.86724 -45.2275,51.32568 -91.29475,85.56602 -178.27882,132.50907 -30.67326,16.55356 -47.71648,28.27258 -48.72368,33.50267 -1.47229,7.64483 0.77889,7.90233 45.39428,5.19258 25.81885,-1.56813 62.54987,-5.81165 81.62449,-9.43004 z"
   id="path14"
   inkscape:connector-curvature="0" /></svg>