<?xml version="1.0" encoding="iso-8859-1"?>
<!-- Generator: Adobe Illustrator 18.1.1, SVG Export Plug-In . SVG Version: 6.00 Build 0)  -->
<svg version="1.1" id="Capa_1" xmlns="http://www.w3.org/2000/svg" xmlns:xlink="http://www.w3.org/1999/xlink" x="0px" y="0px"
	 viewBox="0 0 469.181 469.181" style="enable-background:new 0 0 469.181 469.181;" xml:space="preserve">
<g>
	<g>
		<g>
			<path style="fill:#010002;" d="M436.695,0H32.502C16.586,0,3.621,12.949,3.621,28.873v304.44
				c0,15.924,12.965,28.881,28.881,28.881h114.15c8.478,10.99,25.605,37.359,19.614,49.893c-2.43,5.048-9.039,7.616-19.663,7.616
				c-57.445,0-59.103,20.354-59.103,22.671v26.808h294.198v-35.034l-1.634-1.227c-0.707-0.553-17.826-13.217-60.103-13.217
				c-9.242,0-11.063-3.609-11.689-4.788c-5.267-10.331,9.015-37.05,20.004-52.714h108.411c15.924,0,28.873-12.957,28.873-28.881
				V28.873C465.568,12.949,452.619,0,436.695,0z M300.948,418.646c3.138,6.17,9.535,9.291,19.021,9.291
				c32.116,0,48.552,7.706,53.486,10.518v22.484H95.759l-0.016-18.362c0.423-4.064,10.405-14.64,50.86-14.64
				c14.079,0,23.183-4.129,27.093-12.299c7.551-15.753-8.047-41.179-16.769-53.445h161.409
				C309.752,375.304,293.324,403.738,300.948,418.646z M220.988,331.898c0-7.511,6.096-13.599,13.615-13.599
				c7.511,0,13.607,6.088,13.607,13.599c0,7.527-6.096,13.623-13.607,13.623C227.084,345.513,220.988,339.417,220.988,331.898z
				 M440.817,301.091H28.381V29.97h412.436V301.091z"/>
		</g>
		<g>
			<path style="fill:#010002;" d="M278.424,202.467c-3.536,4.105-8.836,9.421-13.827,8.543c-5.007-0.894-2.764-11.461-7.462-11.461
				c-4.706,0-5.584,0.878-5.584,4.398l0.219,26.572c0,0-2.081,10.283,4.121,12.364c6.161,2.065,9.291-2.162,16.355-5.389
				c7.047-3.227,13.567-7.958,16.794-9.722c3.227-1.74,7.649-10.884,3.536-12.063c-4.113-1.179-8.454-0.756-9.047-3.398
				C282.944,209.652,284,199.353,278.424,202.467z"/>
		</g>
		<g>
			<path style="fill:#010002;" d="M184.897,235.095c7.82,0.219,21.191,5.048,21.191,5.048c3.568,0,7.616-2.024,9.917-4.82
				c2.3-2.812-3.544-11.291-4.04-12.575c-0.512-1.268-15.501-20.817-18.037-21.833c-2.561-1.016-6.438,2.43-7.454,4.983
				c-1.016,2.561-5.471-0.797-8.015-0.797c-2.552,0-6.121,6.787-4.081,8.316c4.568,4.186,1.016,10.071,1.016,10.071
				s-1.187,1.544-1.699,6.137C170.81,237.623,181.076,234.583,184.897,235.095z"/>
		</g>
		<g>
			<path style="fill:#010002;" d="M194.765,195.086c3.097,3.885,16.534,21.443,16.534,21.443s3.455,4.032,6.275,1.447
				c2.837-2.577-3.804-12.908-3.804-12.908c-14.168-12.087-14.737-14.274-14.737-14.274c-3.081-10.583,9.437-22.841,9.437-24.126
				c2.926-5.154,5.804-14.136,5.804-14.136s9.852,4.836,15.956,4.836c0,0,14.249,0.967,19.175-7.99
				c0.788-1.422,2.178,7.364,2.178,9.917c0,2.585,0.431,5.674,5.584,13.9c5.145,8.267,5.186,18.964,5.186,18.964
				c0,9.941,4.788,12.079,4.788,12.079c3.43,0,13.176-8.941,13.176-8.941c0-4.471-3.211-28.539-13.518-37.123
				c-10.323-8.584-14.396-15.119-14.396-15.119s0.528-11.9,0.057-29.385c-1.715-16.493-24.15-18.444-24.15-18.444
				c-13.908,0-23.711,12.835-25.264,19.273c-1.528,6.438,6.942,34.116,5.406,37.717c-0.114,3.552-19.061,23.914-19.102,24.012
				c-3.869,5.414-5.219,19.517-5.219,19.517C185.929,192.907,194.765,195.086,194.765,195.086z M240.244,114.141
				c5.154,0,6.706,6.942,6.706,6.942c0,2.333-0.219,7.21-0.219,7.21c0,0.301-2.601,0.837-5.844,0.984
				c0.309-0.667,0.585-1.422,0.715-2.317c0.341-2.561-0.471-4.292-1.764-4.463c-1.284-0.163-2.56,1.268-2.894,3.796
				c-0.154,1.097-0.073,2.081,0.146,2.918c-1.544-0.146-3.04-0.423-4.398-0.886C229.271,112.304,240.244,114.141,240.244,114.141z
				 M238.204,130.984c0.146,0.089,0.26,0.236,0.415,0.26l0.146-0.065c2.878,0.927,5.414,2.016,6.682,2.918
				c4.024,4.032-0.886,9.405-1.65,9.25c-0.163-0.024-7.169,4.381-14.014,4.341c-6.21-0.041-12.177-4.568-15.249-5.064
				c-3.707-1.577-2.235-3.365-1.455-4.666c0,0,2.561-3.13,6.308-5.706l0.024,0.024l1.04-0.585c0,0,0-0.065,0.016-0.122
				c2.219-1.357,4.739-2.471,7.365-2.585C230.132,128.854,234.375,129.765,238.204,130.984z M213.859,114.312
				c12.607-0.886,10.161,12.949,10.161,12.949l-3.438,1.87c-0.146-1.057-0.406-2.162-0.602-2.837
				c-0.447-1.569-2.886-3.764-4.276-3.381c-1.398,0.39-0.919,4.617-0.471,6.202c0.195,0.675,0.862,1.439,1.666,2.04L213.46,133
				c-2.845-2.057-4.828-9.38-4.828-9.38C208.624,115.653,213.859,114.312,213.859,114.312z"/>
		</g>
		<g>
			<path style="fill:#010002;" d="M226.068,224.316c0,0-3.926-0.26-3.926,2.788c0,1.674-0.951,5.901,1.439,5.901
				c2.382,0,22.004,0.008,22.963,0.008c0.935,0,1.414-1.422,1.414-2.374c0-0.943,0-15.192,0-15.192s-10.673,9.299-14.03,9.063
				C230.579,224.259,228.214,224.316,226.068,224.316z"/>
		</g>
	</g>
</g>
<g>
</g>
<g>
</g>
<g>
</g>
<g>
</g>
<g>
</g>
<g>
</g>
<g>
</g>
<g>
</g>
<g>
</g>
<g>
</g>
<g>
</g>
<g>
</g>
<g>
</g>
<g>
</g>
<g>
</g>
</svg>
