<?xml version="1.0" encoding="iso-8859-1"?>
<!-- Generator: Adobe Illustrator 19.0.0, SVG Export Plug-In . SVG Version: 6.00 Build 0)  -->
<svg version="1.1" id="Layer_1" xmlns="http://www.w3.org/2000/svg" xmlns:xlink="http://www.w3.org/1999/xlink" x="0px" y="0px"
	 viewBox="0 0 512 512" style="enable-background:new 0 0 512 512;" xml:space="preserve">
<g>
	<g>
		<path d="M478.213,163.264l-46.805-80.939c-5.099-9.344-16.107-14.229-27.648-9.963l-52.885,21.248
			c-10.048-7.232-20.608-13.376-31.531-18.304L311.301,19.2C309.936,8.256,300.443,0,289.221,0h-93.867
			c-11.221,0-20.715,8.256-22.059,19.008l-8.064,56.277c-10.581,4.8-20.971,10.859-31.467,18.325L80.731,72.299
			c-10.197-3.925-22.357,0.491-27.435,9.771L6.405,163.157c-5.632,9.557-3.307,21.952,5.44,28.864l44.821,35.029
			c-0.704,6.763-1.045,12.672-1.045,18.283s0.341,11.52,1.024,18.283l-44.843,35.051c-8.555,6.763-10.901,18.752-5.44,28.736
			l46.805,80.96c5.099,9.323,16.128,14.208,27.669,9.941l52.885-21.248c10.048,7.232,20.608,13.376,31.531,18.304l8.043,56.085
			c1.344,10.965,10.837,19.221,22.059,19.221h73.515c3.989,0,7.616-2.219,9.451-5.739c1.835-3.52,1.557-7.765-0.704-11.029
			c-16.32-23.381-24.96-50.795-24.96-79.232c0-13.269,1.941-26.56,5.781-39.509c0.981-3.328,0.299-6.912-1.856-9.643
			c-2.155-2.709-5.461-4.16-8.939-4.053c-1.152,0.064-2.283,0.213-5.184,0.576c-53.056,0-96.213-43.157-96.213-96.213
			c0-53.056,43.157-96.235,96.213-96.235c53.056,0,96.213,43.157,96.021,97.984c-0.149,1.131-0.299,2.261-0.363,3.413
			c-0.171,3.477,1.344,6.805,4.053,8.939c2.731,2.155,6.336,2.795,9.643,1.856c20.757-6.187,41.216-7.659,64.384-3.456
			c2.837,0.512,5.952-0.768,8.341-2.539c2.368-1.771,3.947-5.056,4.267-8c0.043-0.384,0.149-2.112,0.149-2.496
			c0-6.635-0.469-12.885-1.024-18.283L472.752,192C481.307,185.259,483.653,173.269,478.213,163.264z"/>
	</g>
</g>
<g>
	<g>
		<path d="M497.989,298.667c-5.888,0-10.667,4.779-10.667,10.667v26.027c-16.085-28.309-48.213-58.027-96-58.027
			c-64.704,0-117.333,52.629-117.333,117.333S326.619,512,391.323,512c5.888,0,10.667-4.779,10.667-10.667
			c0-5.888-4.779-10.667-10.667-10.667c-52.928,0-96-43.072-96-96s43.072-96,96-96c50.304,0,77.973,41.557,84.779,64h-42.112
			c-5.888,0-10.667,4.779-10.667,10.667c0,5.888,4.779,10.667,10.667,10.667h64c5.888,0,10.667-4.779,10.667-10.667v-64
			C508.656,303.445,503.899,298.667,497.989,298.667z"/>
	</g>
</g>
<g>
</g>
<g>
</g>
<g>
</g>
<g>
</g>
<g>
</g>
<g>
</g>
<g>
</g>
<g>
</g>
<g>
</g>
<g>
</g>
<g>
</g>
<g>
</g>
<g>
</g>
<g>
</g>
<g>
</g>
</svg>
