<?xml version="1.0" encoding="UTF-8" standalone="no"?>
<svg width="16px" height="16px" viewBox="0 0 16 16" version="1.1" xmlns="http://www.w3.org/2000/svg" xmlns:xlink="http://www.w3.org/1999/xlink">
    <!-- Generator: Sketch 39.1 (31720) - http://www.bohemiancoding.com/sketch -->
    <title>arrow-up</title>
    <desc>Created with Sketch.</desc>
    <defs></defs>
    <g id="Page-1" stroke="none" stroke-width="1" fill="none" fill-rule="evenodd">
        <g id="arrow-up">
            <g id="Group" transform="translate(8.000000, 8.000000) scale(1, -1) rotate(-90.000000) translate(-8.000000, -8.000000) ">
                <g id="g34312" transform="translate(-0.000000, 0.000000)">
                    <rect id="rect34314" x="0" y="0" width="16" height="16"></rect>
                </g>
                <path d="M9.1659754,3.129 L5.1659755,7.629 C5.06099923,7.7238107 5.00108933,7.85864653 5.00108933,8.0001 C5.00108933,8.14155347 5.06099923,8.2763893 5.1659755,8.3712 L9.1659754,12.8712 C9.29656714,13.0027661 9.48922641,13.0512925 9.6665597,12.9972857 C9.84389299,12.9432788 9.97679846,12.7956017 10.0118864,12.6135778 C10.0469744,12.431554 9.97848657,12.2450551 9.8339354,12.129 L6.2460455,8.0001 L9.8339354,3.8712 C9.99600823,3.72944524 10.0491416,3.49985954 9.96582508,3.30131391 C9.88250853,3.10276828 9.68145209,2.97984935 9.4667554,2.9962 C9.35439248,3.00529746 9.24840007,3.05209509 9.1659754,3.129 Z" id="polyline34316" fill="#FFFFFF"></path>
                <path d="M9.1659754,3.129 L5.1659755,7.629 C5.06099923,7.7238107 5.00108933,7.85864653 5.00108933,8.0001 C5.00108933,8.14155347 5.06099923,8.2763893 5.1659755,8.3712 L9.1659754,12.8712 C9.29656714,13.0027661 9.48922641,13.0512925 9.6665597,12.9972857 C9.84389299,12.9432788 9.97679846,12.7956017 10.0118864,12.6135778 C10.0469744,12.431554 9.97848657,12.2450551 9.8339354,12.129 L6.2460455,8.0001 L9.8339354,3.8712 C9.99600823,3.72944524 10.0491416,3.49985954 9.96582508,3.30131391 C9.88250853,3.10276828 9.68145209,2.97984935 9.4667554,2.9962 C9.35439248,3.00529746 9.24840007,3.05209509 9.1659754,3.129 Z" id="polyline34316-copy" fill="#FFFFFF"></path>
            </g>
        </g>
    </g>
</svg>