<?xml version="1.0" encoding="UTF-8" standalone="no"?>
<svg width="16px" height="16px" viewBox="0 0 16 16" version="1.1" xmlns="http://www.w3.org/2000/svg" xmlns:xlink="http://www.w3.org/1999/xlink">
    <!-- Generator: Sketch 39.1 (31720) - http://www.bohemiancoding.com/sketch -->
    <title>arrow-right</title>
    <desc>Created with Sketch.</desc>
    <defs></defs>
    <g id="Page-1" stroke="none" stroke-width="1" fill="none" fill-rule="evenodd">
        <g id="arrow-right">
            <g id="Group" transform="translate(8.000000, 8.000000) scale(-1, -1) translate(-8.000000, -8.000000) ">
                <g id="g34312">
                    <rect id="rect34314" x="0" y="0" width="16" height="16"></rect>
                </g>
                <path d="M10.4667554,2.9962 C10.3543925,3.00529746 10.2484001,3.05209509 10.1659754,3.129 L5.1659755,7.629 C5.06099923,7.7238107 5.00108933,7.85864653 5.00108933,8.0001 C5.00108933,8.14155347 5.06099923,8.2763893 5.1659755,8.3712 L10.1659754,12.8712 C10.2965671,13.0027661 10.4892264,13.0512925 10.6665597,12.9972857 C10.843893,12.9432788 10.9767985,12.7956017 11.0118864,12.6135778 C11.0469744,12.431554 10.9784866,12.2450551 10.8339354,12.129 L6.2460455,8.0001 L10.8339354,3.8712 C10.9960082,3.72944524 11.0491416,3.49985954 10.9658251,3.30131391 C10.8825085,3.10276828 10.6814521,2.97984935 10.4667554,2.9962 L10.4667554,2.9962 Z" id="polyline34316" fill="#FFFFFF"></path>
                <path d="M10.4667554,2.9962 C10.3543925,3.00529746 10.2484001,3.05209509 10.1659754,3.129 L5.1659755,7.629 C5.06099923,7.7238107 5.00108933,7.85864653 5.00108933,8.0001 C5.00108933,8.14155347 5.06099923,8.2763893 5.1659755,8.3712 L10.1659754,12.8712 C10.2965671,13.0027661 10.4892264,13.0512925 10.6665597,12.9972857 C10.843893,12.9432788 10.9767985,12.7956017 11.0118864,12.6135778 C11.0469744,12.431554 10.9784866,12.2450551 10.8339354,12.129 L6.2460455,8.0001 L10.8339354,3.8712 C10.9960082,3.72944524 11.0491416,3.49985954 10.9658251,3.30131391 C10.8825085,3.10276828 10.6814521,2.97984935 10.4667554,2.9962 L10.4667554,2.9962 Z" id="polyline34316-copy" fill="#FFFFFF"></path>
            </g>
        </g>
    </g>
</svg>